HIERARCHY
ROOT hip
{
	OFFSET 0.000000 0.000000 0.000000
	CHANNELS 6 Xposition Yposition Zposition Xrotation Zrotation Yrotation 
	JOINT abdomen
	{
		OFFSET 0.000000 3.422050 0.000000
		CHANNELS 3 Xrotation Zrotation Yrotation 
		JOINT chest
		{
			OFFSET 0.000000 8.486693 -0.684411
			CHANNELS 3 Xrotation Zrotation Yrotation 
			JOINT neck
			{
				OFFSET 0.000000 10.266162 -0.273764
				CHANNELS 3 Xrotation Zrotation Yrotation 
				JOINT head
				{
					OFFSET 0.000000 3.148285 0.000000
					CHANNELS 3 Xrotation Zrotation Yrotation 
					End Site
					{
						OFFSET 0.000000 3.148289 0.000000
					}
				}
			}
			JOINT lCollar
			{
				OFFSET 3.422053 6.707223 -0.821293
				CHANNELS 3 Yrotation Zrotation Xrotation 
				JOINT lShldr
				{
					OFFSET 3.285171 0.000000 0.000000
					CHANNELS 3 Zrotation Yrotation Xrotation 
					JOINT lForeArm
					{
						OFFSET 10.129278 0.000000 0.000000
						CHANNELS 3 Yrotation Zrotation Xrotation 
						JOINT lHand
						{
							OFFSET 8.486692 0.000000 0.000000
							CHANNELS 3 Zrotation Yrotation Xrotation 
							End Site
							{
								OFFSET 4.106464 0.000000 0.000000
							}
						}
					}
				}
			}
			JOINT rCollar
			{
				OFFSET -3.558935 6.707223 -0.821293
				CHANNELS 3 Yrotation Zrotation Xrotation 
				JOINT rShldr
				{
					OFFSET -3.148289 0.000000 0.000000
					CHANNELS 3 Zrotation Yrotation Xrotation 
					JOINT rForeArm
					{
						OFFSET -10.266159 0.000000 0.000000
						CHANNELS 3 Yrotation Zrotation Xrotation 
						JOINT rHand
						{
							OFFSET -8.349810 0.000000 0.000000
							CHANNELS 3 Zrotation Yrotation Xrotation 
							End Site
							{
								OFFSET -4.106464 0.000000 0.000000
							}
						}
					}
				}
			}
		}
	}
	JOINT lThigh
	{
		OFFSET 5.338403 -1.642589 1.368821
		CHANNELS 3 Xrotation Zrotation Yrotation 
		JOINT lShin
		{
			OFFSET -2.053232 -20.121670 0.000000
			CHANNELS 3 Xrotation Zrotation Yrotation 
			JOINT lFoot
			{
				OFFSET 0.000000 -19.300380 -1.231939
				CHANNELS 3 Xrotation Yrotation Zrotation 
				End Site
				{
					OFFSET 0.000000 -2.463878 4.653993
				}
			}
		}
	}
	JOINT rThigh
	{
		OFFSET -5.338403 -1.642589 1.368821
		CHANNELS 3 Xrotation Zrotation Yrotation 
		JOINT rShin
		{
			OFFSET 2.053232 -20.121670 0.000000
			CHANNELS 3 Xrotation Zrotation Yrotation 
			JOINT rFoot
			{
				OFFSET 0.000000 -19.300380 -1.231939
				CHANNELS 3 Xrotation Yrotation Zrotation 
				End Site
				{
					OFFSET 0.000000 -2.463878 4.653993
				}
			}
		}
	}
}
MOTION
Frames: 6
Frame Time: 0.033264
0.000000 43.528500 0.000000 0.000000 0.000000 0.000000 0.000000 0.000000 0.000000 0.000000 0.000000 0.000000 0.000000 0.000000 0.000000 0.000000 0.000000 0.000000 0.000000 0.000000 0.000000 0.000000 0.000000 0.000000 0.000000 0.000000 0.000000 0.000000 0.000000 0.000000 0.000000 0.000000 0.000000 0.000000 0.000000 0.000000 0.000000 0.000000 0.000000 0.000000 0.000000 0.000000 0.000000 0.000000 0.000000 0.000000 0.000000 0.000000 0.000000 0.000000 0.000000 0.000000 0.000000 0.000000 0.000000 0.000000 0.000000 0.000000 0.000000 0.000000 
0.000000 43.528500 0.000000 15.996989 0.000000 0.000000 -8.335250 -0.539980 -0.120196 40.663425 -0.667261 -0.801085 6.996825 0.000000 0.000000 17.998348 0.000000 0.000000 3.537595 2.811265 -2.755694 -77.959221 1.386215 -1.942763 15.603721 -22.588030 4.842241 0.015949 -28.859053 2.345036 -4.895318 11.894844 -0.867520 70.738747 -3.642402 -1.447088 -7.319467 10.246052 2.713624 6.075650 25.964754 1.939205 -11.496833 2.535246 10.516695 81.876732 6.862367 -2.062448 72.753723 19.995880 -17.669983 -11.681768 -2.374348 -10.431590 88.295410 -6.262272 1.034454 35.492741 -5.319723 12.519758 
0.000000 43.528500 -0.075928 16.773235 0.000000 0.000000 -7.393643 -0.539967 -0.120176 36.882675 -0.667419 -0.801017 6.608315 0.000000 0.000000 17.001894 0.000000 0.000000 3.774141 3.244104 -0.852879 -77.959038 1.386285 -1.942804 16.022514 -22.992743 4.977412 0.092867 -28.795774 2.859243 -5.476199 10.970146 1.105048 71.139671 -3.723345 -1.493042 -7.528943 10.548752 2.741351 6.072227 25.822859 2.465657 -12.552052 2.570595 10.591019 82.178558 6.898208 -2.026551 72.753593 19.995995 -17.669830 -12.731938 -2.421323 -10.518648 88.318687 -6.264562 1.031882 35.492638 -5.319756 12.519567 
0.000000 43.528500 -0.151855 17.550056 0.000000 0.000000 -6.451011 -0.539954 -0.120156 33.028519 -0.667575 -0.800937 6.219733 0.000000 0.000000 16.004217 0.000000 0.000000 3.997317 3.686722 1.058319 -77.958862 1.386355 -1.942845 16.443777 -23.396688 5.116265 0.170412 -28.733080 3.373432 -6.025748 10.020926 3.073404 71.540787 -3.803982 -1.539576 -7.738809 10.851400 2.770237 6.067359 25.680944 2.991681 -13.608711 2.607357 10.664779 82.480469 6.933865 -1.990457 72.753464 19.996107 -17.669682 -13.783520 -2.469953 -10.604955 88.341927 -6.266850 1.029309 35.492531 -5.319789 12.519374 
0.000000 43.528500 -0.227783 18.327383 0.000000 0.000000 -5.507484 -0.539941 -0.120136 29.107733 -0.667729 -0.800846 5.831090 0.000000 0.000000 15.005482 0.000000 0.000000 4.206550 4.138471 2.977012 -77.958679 1.386425 -1.942886 16.867546 -23.799812 5.258837 0.248576 -28.670977 3.887583 -6.542966 9.048773 5.036901 71.942085 -3.884306 -1.586688 -7.949075 11.153982 2.800286 6.061051 25.539030 3.517262 -14.666639 2.645520 10.737943 82.782440 6.969335 -1.954169 72.753334 19.996220 -17.669531 -14.836334 -2.520218 -10.690458 88.365181 -6.269136 1.026735 35.492428 -5.319823 12.519183 
0.000000 43.528500 -0.303711 19.105133 0.000000 0.000000 -4.563185 -0.539929 -0.120115 25.127970 -0.667877 -0.800742 5.442392 0.000000 0.000000 14.005833 0.000000 0.000000 4.401309 4.598664 4.902303 -77.958511 1.386494 -1.942926 17.293865 -24.202072 5.405163 0.327348 -28.609470 4.401674 -7.026963 8.055378 6.994980 72.343536 -3.964311 -1.634374 -8.159754 11.456496 2.831504 6.053308 25.397135 4.042384 -15.725652 2.685067 10.810465 83.084496 7.004618 -1.917688 72.753189 19.996332 -17.669378 -15.890203 -2.572099 -10.775113 88.388435 -6.271422 1.024159 35.492329 -5.319856 12.518990 
